<?xml version="1.0" standalone="no"?><!DOCTYPE svg PUBLIC "-//W3C//DTD SVG 1.1//EN" "http://www.w3.org/Graphics/SVG/1.1/DTD/svg11.dtd"><svg t="1653631395446" class="icon" viewBox="0 0 1024 1024" version="1.1" xmlns="http://www.w3.org/2000/svg" p-id="8289" xmlns:xlink="http://www.w3.org/1999/xlink" width="200" height="200"><defs><style type="text/css">@font-face { font-family: feedback-iconfont; src: url("//at.alicdn.com/t/font_1031158_u69w8yhxdu.woff2?t=1630033759944") format("woff2"), url("//at.alicdn.com/t/font_1031158_u69w8yhxdu.woff?t=1630033759944") format("woff"), url("//at.alicdn.com/t/font_1031158_u69w8yhxdu.ttf?t=1630033759944") format("truetype"); }
</style></defs><path d="M480 64A416.64 416.64 0 0 0 64 480 416.64 416.64 0 0 0 480 896 416.64 416.64 0 0 0 896 480 416.64 416.64 0 0 0 480 64z m0 64C674.752 128 832 285.248 832 480S674.752 832 480 832A351.552 351.552 0 0 1 128 480C128 285.248 285.248 128 480 128zM448 320v128H320v64h128v128h64V512h128V448H512V320z" fill="" p-id="8290"></path></svg>