<?xml version="1.0" standalone="no"?><!DOCTYPE svg PUBLIC "-//W3C//DTD SVG 1.1//EN" "http://www.w3.org/Graphics/SVG/1.1/DTD/svg11.dtd"><svg t="1653384726227" class="icon" viewBox="0 0 1024 1024" version="1.1" xmlns="http://www.w3.org/2000/svg" p-id="8112" xmlns:xlink="http://www.w3.org/1999/xlink" width="200" height="200"><defs><style type="text/css">@font-face { font-family: feedback-iconfont; src: url("//at.alicdn.com/t/font_1031158_u69w8yhxdu.woff2?t=1630033759944") format("woff2"), url("//at.alicdn.com/t/font_1031158_u69w8yhxdu.woff?t=1630033759944") format("woff"), url("//at.alicdn.com/t/font_1031158_u69w8yhxdu.ttf?t=1630033759944") format("truetype"); }
</style></defs><path d="M842.24 880.64H318.72c-121.6 0-220.16-98.56-220.16-220.16V375.04c0-121.6 98.56-220.16 220.16-220.16h391.68c121.6 0 220.16 98.56 220.16 220.16v416c1.28 49.92-39.68 89.6-88.32 89.6z m-523.52-665.6c-88.32 0-160 71.68-160 160v285.44c0 88.32 71.68 160 160 160h523.52c16.64 0 29.44-12.8 29.44-29.44V375.04c0-88.32-71.68-160-160-160H318.72z" p-id="8113"></path><path d="M268.8 436.48c0 26.88 21.76 47.36 47.36 47.36s47.36-21.76 47.36-47.36-21.76-47.36-47.36-47.36-47.36 19.2-47.36 47.36z" p-id="8114"></path><path d="M515.84 436.48m-47.36 0a47.36 47.36 0 1 0 94.72 0 47.36 47.36 0 1 0-94.72 0Z" p-id="8115"></path></svg>