<?xml version="1.0" standalone="no"?><!DOCTYPE svg PUBLIC "-//W3C//DTD SVG 1.1//EN" "http://www.w3.org/Graphics/SVG/1.1/DTD/svg11.dtd"><svg t="1653384477284" class="icon" viewBox="0 0 1024 1024" version="1.1" xmlns="http://www.w3.org/2000/svg" p-id="4746" xmlns:xlink="http://www.w3.org/1999/xlink" width="200" height="200"><defs><style type="text/css">@font-face { font-family: feedback-iconfont; src: url("//at.alicdn.com/t/font_1031158_u69w8yhxdu.woff2?t=1630033759944") format("woff2"), url("//at.alicdn.com/t/font_1031158_u69w8yhxdu.woff?t=1630033759944") format("woff"), url("//at.alicdn.com/t/font_1031158_u69w8yhxdu.ttf?t=1630033759944") format("truetype"); }
</style></defs><path d="M851.2 311.04L634.88 148.48c-72.96-55.04-174.08-55.04-247.04 0L172.8 311.04c-48.64 35.84-76.8 93.44-76.8 153.6v261.12c0 106.24 85.76 190.72 190.72 190.72h449.28c106.24 0 190.72-85.76 190.72-190.72V464.64c1.28-60.16-26.88-117.76-75.52-153.6z m10.24 413.44c0 69.12-55.04 124.16-124.16 124.16H286.72c-69.12 0-124.16-55.04-124.16-124.16V464.64c0-39.68 17.92-75.52 49.92-99.84l216.32-162.56c49.92-37.12 116.48-37.12 166.4 0l216.32 162.56c30.72 23.04 49.92 60.16 49.92 99.84v259.84z" p-id="4747"></path><path d="M629.76 593.92c-7.68-3.84-15.36-5.12-23.04-2.56-7.68 2.56-14.08 7.68-17.92 15.36-16.64 30.72-44.8 48.64-75.52 48.64-30.72 0-60.16-17.92-76.8-47.36-7.68-14.08-26.88-19.2-42.24-11.52-14.08 7.68-19.2 26.88-11.52 42.24 28.16 49.92 75.52 79.36 128 79.36h3.84c52.48-1.28 101.12-32 126.72-81.92 3.84-7.68 5.12-15.36 2.56-23.04-2.56-8.96-7.68-15.36-14.08-19.2z" p-id="4748"></path></svg>