<?xml version="1.0" standalone="no"?><!DOCTYPE svg PUBLIC "-//W3C//DTD SVG 1.1//EN" "http://www.w3.org/Graphics/SVG/1.1/DTD/svg11.dtd"><svg t="1653631533954" class="icon" viewBox="0 0 4885 1024" version="1.1" xmlns="http://www.w3.org/2000/svg" p-id="17492" xmlns:xlink="http://www.w3.org/1999/xlink" width="954.1015625" height="200"><defs><style type="text/css">@font-face { font-family: feedback-iconfont; src: url("//at.alicdn.com/t/font_1031158_u69w8yhxdu.woff2?t=1630033759944") format("woff2"), url("//at.alicdn.com/t/font_1031158_u69w8yhxdu.woff?t=1630033759944") format("woff"), url("//at.alicdn.com/t/font_1031158_u69w8yhxdu.ttf?t=1630033759944") format("truetype"); }
</style></defs><path d="M4037.25331 458.224184v-99.417476h-225.948809v99.417476h127.435128V1003.21271l252.158871-131.954105V759.187996l-153.64519 80.437776zM4885.013239 358.806708h-292.829656V0h-107.551632v358.806708h-292.829656v99.417476h292.829656v565.775816h107.551632V458.224184h292.829656zM4122.210062 262.100618L4030.926743 31.632833h-121.108561L4001.1015 262.100618zM2810.803177 457.320388v-99.417475h-257.581641v99.417475h159.067961V1003.21271L2964.448367 871.258605V759.187996l-153.64519 80.437776zM3504.917917 30.729038h-423.879965c-2.711386 144.607237-48.804943 268.427184-91.283318 352.480141h112.070609c41.574581-96.70609 61.458076-189.796999 70.496028-260.293027h232.275375v260.293027h221.429832V285.599294h-122.916151V30.729038zM3493.168579 689.595763c81.341571-115.68579 103.936452-216.910856 106.647838-232.275375h-595.60106c3.615181 15.364519 26.210062 116.589585 109.359224 232.275375 32.536628 45.189762 69.592233 85.860547 111.166814 123.819948-68.688438 44.285966-147.318623 79.533981-234.986761 105.744042V1021.288614c119.300971-32.536628 225.045013-80.437776 315.424536-144.607237 91.283319 64.169462 199.738747 112.974404 321.751104 144.607237v-103.032656c-90.379523-26.210062-170.817299-61.458076-242.217123-106.647838 40.670786-37.055605 76.822595-77.72639 108.455428-122.012357z m-301.867608-58.74669c-19.883495-27.113857-35.248014-53.323919-47.901148-76.822595h319.943513c-11.749338 23.498676-27.113857 49.708738-46.093557 76.822595-31.632833 45.189762-69.592233 85.860547-112.070609 122.916152-43.382171-37.055605-82.245366-78.630185-113.878199-122.916152zM2895.759929 261.196823L2804.476611 30.729038h-121.108562L2774.651368 261.196823zM904.699029 475.396293V271.13857H541.373345v204.257723H373.267432v547.699912h98.51368V573.909974h69.592233v336.211827h363.325684V573.909974h70.496028v449.186231h98.513681V475.396293h-169.009709zM635.368049 369.652251h175.336276v105.744042H635.368049V369.652251z m176.240071 441.052074H635.368049V573.909974h175.336276v236.794351z" p-id="17493"></path><path d="M721.228597 0.903795H602.831421l36.151809 92.187114H373.267432V32.536628L37.055605 87.668138v91.283318l140.992056-22.594881v148.222419H37.055605v91.283318H178.047661h-20.78729L0 898.372462h93.090909l84.956752-271.13857v396.766108h99.417476V395.862312h95.802295V304.578994H277.465137V140.088261l95.802295-15.364519v66.880848h701.345101V93.090909H757.380406zM1897.969991 902.891439V679.654016h347.05737V581.140335H1897.969991v-153.645189h347.05737V328.981465h-766.418358v98.513681h320.847308v445.57105c-164.490733-65.073257-234.986761-178.047661-244.024713-193.41218 11.749338-65.977052 14.460724-119.300971 15.364519-146.414828h-92.187114c-0.903795 27.113857-4.518976 82.245366-17.17211 148.222418-10.845543 53.323919-26.210062 102.128861-44.285966 146.414828-22.594881 53.323919-51.516328 98.51368-84.956752 134.66549l75.015004 60.554281c37.055605-43.382171 68.688438-94.8985 93.994704-153.64519 9.037952-19.883495 16.268314-41.574581 23.498677-63.265666 61.458076 66.880847 172.62489 155.45278 349.768755 193.41218 108.455428 23.498676 297.348632 24.402471 443.76346 24.402471h50.612533v-98.51368h-23.498676c-137.376876-0.903795-343.442189-0.903795-447.378641-22.594881zM1869.952339 0.903795h-118.397176l36.15181 92.187114h-431.110327v215.103266h99.417476V191.60459h814.319506v116.589585h98.51368V93.090909h-462.74316z" p-id="17494"></path></svg>