<?xml version="1.0" standalone="no"?><!DOCTYPE svg PUBLIC "-//W3C//DTD SVG 1.1//EN" "http://www.w3.org/Graphics/SVG/1.1/DTD/svg11.dtd"><svg t="1653384751350" class="icon" viewBox="0 0 1024 1024" version="1.1" xmlns="http://www.w3.org/2000/svg" p-id="10579" xmlns:xlink="http://www.w3.org/1999/xlink" width="200" height="200"><defs><style type="text/css">@font-face { font-family: feedback-iconfont; src: url("//at.alicdn.com/t/font_1031158_u69w8yhxdu.woff2?t=1630033759944") format("woff2"), url("//at.alicdn.com/t/font_1031158_u69w8yhxdu.woff?t=1630033759944") format("woff"), url("//at.alicdn.com/t/font_1031158_u69w8yhxdu.ttf?t=1630033759944") format("truetype"); }
</style></defs><path d="M512 96C282.88 96 96 282.88 96 512S282.88 928 512 928 928 741.12 928 512 741.12 96 512 96z m0 768c-194.56 0-352-157.44-352-352S317.44 160 512 160 864 317.44 864 512 706.56 864 512 864z" p-id="10580"></path><path d="M300.8 440.32c0 26.88 21.76 47.36 47.36 47.36s47.36-21.76 47.36-47.36-21.76-47.36-47.36-47.36-47.36 20.48-47.36 47.36z" p-id="10581"></path><path d="M568.32 440.32m-47.36 0a47.36 47.36 0 1 0 94.72 0 47.36 47.36 0 1 0-94.72 0Z" p-id="10582"></path></svg>