<?xml version="1.0" standalone="no"?><!DOCTYPE svg PUBLIC "-//W3C//DTD SVG 1.1//EN" "http://www.w3.org/Graphics/SVG/1.1/DTD/svg11.dtd"><svg t="1653384527663" class="icon" viewBox="0 0 1024 1024" version="1.1" xmlns="http://www.w3.org/2000/svg" p-id="4907" xmlns:xlink="http://www.w3.org/1999/xlink" width="200" height="200"><defs><style type="text/css">@font-face { font-family: feedback-iconfont; src: url("//at.alicdn.com/t/font_1031158_u69w8yhxdu.woff2?t=1630033759944") format("woff2"), url("//at.alicdn.com/t/font_1031158_u69w8yhxdu.woff?t=1630033759944") format("woff"), url("//at.alicdn.com/t/font_1031158_u69w8yhxdu.ttf?t=1630033759944") format("truetype"); }
</style></defs><path d="M628.48 592.64c-7.68-3.84-15.36-5.12-23.04-2.56-7.68 2.56-14.08 7.68-17.92 15.36-16.64 30.72-44.8 48.64-75.52 48.64-30.72 0-60.16-17.92-76.8-47.36-7.68-14.08-26.88-19.2-42.24-11.52-14.08 7.68-19.2 26.88-11.52 42.24 28.16 49.92 75.52 79.36 128 79.36h3.84c52.48-1.28 101.12-32 126.72-81.92 3.84-7.68 5.12-15.36 2.56-23.04-1.28-8.96-6.4-15.36-14.08-19.2z" p-id="4908"></path><path d="M512 96C282.88 96 96 282.88 96 512S282.88 928 512 928 928 741.12 928 512 741.12 96 512 96z m0 768c-194.56 0-352-157.44-352-352S317.44 160 512 160 864 317.44 864 512 706.56 864 512 864z" p-id="4909"></path></svg>