<?xml version="1.0" standalone="no"?><!DOCTYPE svg PUBLIC "-//W3C//DTD SVG 1.1//EN" "http://www.w3.org/Graphics/SVG/1.1/DTD/svg11.dtd"><svg t="1653555435458" class="icon" viewBox="0 0 1024 1024" version="1.1" xmlns="http://www.w3.org/2000/svg" p-id="9297" xmlns:xlink="http://www.w3.org/1999/xlink" width="200" height="200"><defs><style type="text/css">@font-face { font-family: feedback-iconfont; src: url("//at.alicdn.com/t/font_1031158_u69w8yhxdu.woff2?t=1630033759944") format("woff2"), url("//at.alicdn.com/t/font_1031158_u69w8yhxdu.woff?t=1630033759944") format("woff"), url("//at.alicdn.com/t/font_1031158_u69w8yhxdu.ttf?t=1630033759944") format("truetype"); }
</style></defs><path d="M567.296 733.696c0-30.72-25.088-55.296-55.296-55.296-30.72 0-55.296 25.088-55.296 55.296s25.088 55.296 55.296 55.296c30.208 0.512 55.296-24.576 55.296-55.296z m0-221.696c0-30.72-25.088-55.296-55.296-55.296-30.72 0-55.296 25.088-55.296 55.296s25.088 55.296 55.296 55.296 55.296-24.576 55.296-55.296z m0-222.208c0-30.72-25.088-55.296-55.296-55.296-30.72 0-55.296 25.088-55.296 55.296s25.088 55.296 55.296 55.296c30.208 0.512 55.296-24.576 55.296-55.296z" p-id="9298"></path></svg>