<?xml version="1.0" standalone="no"?><!DOCTYPE svg PUBLIC "-//W3C//DTD SVG 1.1//EN" "http://www.w3.org/Graphics/SVG/1.1/DTD/svg11.dtd"><svg t="1653384543156" class="icon" viewBox="0 0 1024 1024" version="1.1" xmlns="http://www.w3.org/2000/svg" p-id="5551" xmlns:xlink="http://www.w3.org/1999/xlink" width="200" height="200"><defs><style type="text/css">@font-face { font-family: feedback-iconfont; src: url("//at.alicdn.com/t/font_1031158_u69w8yhxdu.woff2?t=1630033759944") format("woff2"), url("//at.alicdn.com/t/font_1031158_u69w8yhxdu.woff?t=1630033759944") format("woff"), url("//at.alicdn.com/t/font_1031158_u69w8yhxdu.ttf?t=1630033759944") format("truetype"); }
</style></defs><path d="M512 96C282.88 96 96 282.88 96 512c0 90.88 30.72 180.48 85.76 252.16L166.4 842.24c-2.56 15.36 2.56 32 15.36 42.24 11.52 10.24 28.16 14.08 43.52 8.96l72.96-24.32c65.28 38.4 139.52 60.16 215.04 60.16C742.4 929.28 929.28 742.4 929.28 513.28 928 282.88 741.12 96 512 96z m0 768c-67.84 0-134.4-20.48-192-57.6l-12.8-7.68-70.4 24.32 14.08-74.24-8.96-11.52c-52.48-62.72-80.64-143.36-80.64-225.28 0-194.56 157.44-352 352-352S865.28 317.44 865.28 512C864 706.56 706.56 864 512 864z" p-id="5552"></path><path d="M628.48 592.64c-7.68-3.84-15.36-5.12-23.04-2.56-7.68 2.56-14.08 7.68-17.92 15.36-16.64 30.72-44.8 48.64-75.52 48.64-30.72 0-60.16-17.92-76.8-47.36-7.68-14.08-26.88-19.2-42.24-11.52-14.08 7.68-19.2 26.88-11.52 42.24 28.16 49.92 75.52 79.36 128 79.36h3.84c52.48-1.28 101.12-32 126.72-81.92 3.84-7.68 5.12-15.36 2.56-23.04-1.28-8.96-6.4-15.36-14.08-19.2z" p-id="5553"></path></svg>