<?xml version="1.0" standalone="no"?><!DOCTYPE svg PUBLIC "-//W3C//DTD SVG 1.1//EN" "http://www.w3.org/Graphics/SVG/1.1/DTD/svg11.dtd"><svg t="1653379168217" class="icon" viewBox="0 0 1024 1024" version="1.1" xmlns="http://www.w3.org/2000/svg" p-id="2259" xmlns:xlink="http://www.w3.org/1999/xlink" width="200" height="200"><defs><style type="text/css">@font-face { font-family: feedback-iconfont; src: url("//at.alicdn.com/t/font_1031158_u69w8yhxdu.woff2?t=1630033759944") format("woff2"), url("//at.alicdn.com/t/font_1031158_u69w8yhxdu.woff?t=1630033759944") format("woff"), url("//at.alicdn.com/t/font_1031158_u69w8yhxdu.ttf?t=1630033759944") format("truetype"); }
</style></defs><path d="M387.584 141.568a202.666667 202.666667 0 0 1 248.832 0l213.333333 165.930667a202.666667 202.666667 0 0 1 78.250667 160V725.333333A202.666667 202.666667 0 0 1 725.333333 928H298.666667A202.666667 202.666667 0 0 1 96 725.333333v-257.877333a202.666667 202.666667 0 0 1 78.250667-160l213.333333-165.888zM364.288 623.36c-1.621333 8.234667-1.621333 18.133333-1.621333 37.973333s0 29.738667 1.621333 37.973334a85.333333 85.333333 0 0 0 67.072 67.072c8.234667 1.621333 18.133333 1.621333 37.973333 1.621333h85.333334c19.84 0 29.738667 0 37.973333-1.621333a85.333333 85.333333 0 0 0 67.072-67.072c1.621333-8.234667 1.621333-18.133333 1.621333-37.973334s0-29.738667-1.621333-37.973333a85.333333 85.333333 0 0 0-67.072-67.072C584.405333 554.666667 574.506667 554.666667 554.666667 554.666667h-85.333334c-19.84 0-29.738667 0-37.973333 1.621333a85.333333 85.333333 0 0 0-67.072 67.072z" fill="#BEC1C8" p-id="2260"></path><path d="M362.666667 554.666667m85.333333 0l128 0q85.333333 0 85.333333 85.333333l0 42.666667q0 85.333333-85.333333 85.333333l-128 0q-85.333333 0-85.333333-85.333333l0-42.666667q0-85.333333 85.333333-85.333333Z" fill="#09183F" p-id="2261"></path></svg>